<?xml version="1.0" encoding="UTF-8" standalone="no"?>
<svg width="75px" height="57px" viewBox="0 0 75 57" version="1.1" xmlns="http://www.w3.org/2000/svg" xmlns:xlink="http://www.w3.org/1999/xlink">
    <!-- Generator: Sketch 46.2 (44496) - http://www.bohemiancoding.com/sketch -->
    <title>any_audio_logo</title>
    <desc>Created with Sketch.</desc>
    <defs>
        <linearGradient x1="0%" y1="100%" x2="100%" y2="100%" id="linearGradient-1">
            <stop stop-color="#F44336" offset="0%"></stop>
            <stop stop-color="#FFA726" offset="100%"></stop>
        </linearGradient>
    </defs>
    <g id="Welcome" stroke="none" stroke-width="1" fill="none" fill-rule="evenodd">
        <g id="home_view" transform="translate(-99.000000, -12.000000)" fill-rule="nonzero">
            <g id="navbar" transform="translate(-3.000000, 0.000000)">
                <g id="brand">
                    <g id="any_audio_logo" transform="translate(102.000000, 12.000000)">
                        <g id="headphone">
                            <path d="M66.883066,35.771026 C66.883066,16.0435844 53.5519068,0 37.0293357,0 C20.5067646,0 7.17560541,16.0435844 7.17560541,35.771026 L8.7268964,35.771026 C8.7268964,16.8446553 21.4331412,1.55313351 37.0293357,1.55313351 C52.6255302,1.55313351 65.331775,16.8446553 65.331775,35.771026 L66.883066,35.771026 Z" id="Oval" fill="url(#linearGradient-1)"></path>
                            <g id="heads" transform="translate(0.000000, 35.571058)">
                                <path d="M66.846704,9.24515676 L72.5073804,9.24515676 L72.5073804,1.55313351 L66.846704,1.55313351 L66.846704,9.24515676 Z M65.295413,0 L74.0586714,0 L74.0586714,10.7982903 L65.295413,10.7982903 L65.295413,0 Z" id="Rectangle-Copy" fill="#FFA726"></path>
                                <path d="M1.551291,9.24515676 L7.21196744,9.24515676 L7.21196744,1.55313351 L1.551291,1.55313351 L1.551291,9.24515676 Z M0,0 L8.76325843,0 L8.76325843,10.7982903 L0,10.7982903 L0,0 Z" id="Rectangle-Copy-2" fill="#F44336"></path>
                            </g>
                        </g>
                        <path d="M27.2520206,46.6313436 C27.5747831,47.2800511 28.4482863,47.2808481 28.7766191,46.6394216 L33.6639486,37.091601 L38.468776,46.6347966 C38.792843,47.2784482 39.6638126,47.2819249 39.9923145,46.6396031 L44.8801663,37.0823574 L50.1411175,48.0971695 L57.1220225,35.8478977 L55.774409,35.0785831 L43.7630981,56.183165 L45.1109353,56.9520867 L57.1222462,35.8475048 L55.7746328,35.0781902 L49.5279968,46.039053 L50.9014467,46.0888918 L45.6706653,35.137246 C45.3563555,34.4791781 44.4743374,34.4681181 44.1428271,35.1163221 L39.2366294,44.7094399 L34.4321057,35.1668474 C34.1073317,34.5217918 33.2363232,34.5216194 32.908412,35.1622224 L28.0251934,44.702012 L23.2765473,35.157899 C22.9547258,34.5110829 22.083606,34.5073677 21.7529577,35.1463615 L16.1257896,46.0211345 L17.5032098,46.7355768 L22.4996426,37.07973 L27.2520206,46.6313436 Z" id="Path-2" fill="url(#linearGradient-1)"></path>
                    </g>
                </g>
            </g>
        </g>
    </g>
</svg>